<svg width="197" height="49" viewBox="0 0 197 49" fill="none" xmlns="http://www.w3.org/2000/svg">
<g clip-path="url(#clip0_331_691)">
<path d="M1.66792 46V11.3283H10.3358V2.66041H27.6717V11.3283H36.3396V46H27.6717V28.6642H10.3358V46H1.66792ZM10.3358 19.9962H27.6717V11.675H10.3358V19.9962Z" fill="white"/>
<path d="M49.0194 46V37.3321H40.3515V2.66041H49.0194V37.3321H66.3553V46H49.0194ZM66.3553 37.3321V2.66041H75.0232V37.3321H66.3553Z" fill="white"/>
<path d="M87.7069 46V11.3283H79.039V2.66041H105.043V11.3283H96.3748V46H87.7069Z" fill="white"/>
<path d="M108.723 46V2.66041H117.391V19.9962H134.726V2.66041H143.394V46H134.726V28.6642H117.391V46H108.723Z" fill="white"/>
<path d="M147.406 46V2.66041H156.074V46H147.406Z" fill="white"/>
<path d="M168.762 46V37.3321H160.094V11.3283H168.762V2.66041H186.097V11.3283H194.765V37.3321H186.097V46H168.762ZM168.762 36.9854H186.097V11.675H168.762V36.9854Z" fill="white"/>
</g>
<defs>
<clipPath id="clip0_331_691">
<rect width="197" height="49" fill="white"/>
</clipPath>
</defs>
</svg>
