<svg width="47511" height="13074" viewBox="0 0 47511 13074" fill="none" xmlns="http://www.w3.org/2000/svg">
<path d="M4024.25 3263.49H7175.21V6761.73L4024.25 3263.49ZM689.433 5316.47H658.792C658.792 4615.12 849.45 4097.62 1230.77 3763.97C1612.08 3430.32 2199.38 3263.49 2992.65 3263.49L7175.21 8339.76C7175.21 9013.88 6993.06 9495.63 6628.77 9785.02C6274.69 10067.6 5695.91 10208.9 4892.42 10208.9L689.433 5316.47ZM674.112 6695.34L3707.62 10214H674.112V6695.34Z" fill="#FFFB83"/>
<path d="M11469.2 9517.36C11070.8 9517.36 10716.9 9446.59 10407.6 9305.05C10098.3 9163.51 9857.2 8961.69 9684.2 8699.57C9511.21 8437.46 9422.09 8125.55 9416.85 7763.84H10415.5C10415.5 7947.32 10457.4 8112.45 10541.3 8259.23C10630.4 8400.77 10751 8513.48 10903 8597.35C11060.3 8681.23 11249 8723.16 11469.2 8723.16C11657.9 8723.16 11820.4 8694.33 11956.7 8636.67C12098.2 8573.76 12205.7 8487.26 12279.1 8377.18C12357.7 8261.85 12397 8128.17 12397 7976.15C12397 7803.16 12355.1 7661.62 12271.2 7551.53C12192.6 7436.2 12082.5 7339.22 11941 7260.59C11799.4 7181.95 11636.9 7113.8 11453.4 7056.14C11270 6993.23 11076 6927.71 10871.6 6859.56C10436.5 6712.78 10108.8 6526.68 9888.65 6301.26C9668.48 6070.6 9558.39 5763.93 9558.39 5381.25C9558.39 5061.48 9634.4 4786.26 9786.43 4555.6C9938.45 4324.95 10150.8 4146.71 10423.4 4020.9C10701.2 3889.84 11021 3824.32 11382.7 3824.32C11749.6 3824.32 12069.4 3889.84 12342 4020.9C12619.8 4151.95 12837.4 4335.43 12994.7 4571.33C13157.2 4801.99 13241 5079.83 13246.3 5404.84H12239.8C12234.5 5268.55 12197.8 5142.73 12129.7 5027.4C12061.5 4906.83 11961.9 4809.85 11830.9 4736.46C11705.1 4657.83 11550.4 4618.51 11367 4618.51C11209.7 4613.27 11068.1 4639.48 10942.3 4697.14C10821.8 4749.57 10724.8 4828.2 10651.4 4933.04C10583.2 5032.65 10549.2 5158.46 10549.2 5310.48C10549.2 5457.26 10580.6 5580.46 10643.5 5680.06C10711.7 5774.42 10808.7 5855.67 10934.5 5923.82C11060.3 5986.73 11207.1 6047.01 11374.8 6104.68C11542.6 6162.34 11726 6225.25 11925.2 6293.4C12197.8 6382.52 12444.2 6492.6 12664.4 6623.66C12889.8 6749.47 13068.1 6914.6 13199.1 7119.05C13330.2 7323.49 13395.7 7588.22 13395.7 7913.24C13395.7 8196.32 13322.3 8461.05 13175.5 8707.44C13028.7 8948.58 12813.8 9145.16 12530.7 9297.19C12247.6 9443.97 11893.8 9517.36 11469.2 9517.36ZM14596.3 9423L13432.5 5459.89H14368.2L15178.1 8715.3L15005.2 8707.44L15909.4 5459.89H16963.1L17875.3 8707.44H17702.3L18512.2 5459.89H19447.9L18284.2 9423H17309.1L16341.9 6065.36H16538.5L15571.3 9423H14596.3ZM19689.6 9423V5459.89H20633.2V9423H19689.6ZM20161.4 4830.82C19988.4 4830.82 19844.2 4778.4 19728.9 4673.55C19618.8 4563.47 19563.8 4429.79 19563.8 4272.52C19563.8 4110.02 19618.8 3978.96 19728.9 3879.36C19844.2 3774.51 19988.4 3722.09 20161.4 3722.09C20334.4 3722.09 20475.9 3774.51 20586 3879.36C20701.4 3978.96 20759 4110.02 20759 4272.52C20759 4429.79 20701.4 4563.47 20586 4673.55C20475.9 4778.4 20334.4 4830.82 20161.4 4830.82ZM21448.4 9423V5027.4C21448.4 4723.35 21498.2 4479.59 21597.8 4296.11C21702.7 4107.39 21852.1 3971.1 22046 3887.22C22240 3803.35 22470.6 3761.41 22738 3761.41H23209.8V4563.47H22879.5C22706.5 4563.47 22580.7 4600.16 22502.1 4673.55C22428.7 4741.7 22392 4862.27 22392 5035.27V9423H21448.4ZM20882.2 6254.08V5459.89H23288.4V6254.08H20882.2ZM25351 9423C25083.7 9423 24850.4 9381.06 24651.2 9297.19C24457.2 9213.31 24305.2 9074.39 24195.1 8880.43C24085 8686.47 24030 8424.36 24030 8094.1V6254.08H23353.7V5459.89H24030L24140.1 4414.06H24973.6V5459.89H26050.8V6254.08H24973.6V8094.1C24973.6 8293.3 25015.5 8432.22 25099.4 8510.85C25188.5 8584.25 25335.3 8620.94 25539.7 8620.94H26027.3V9423H25351ZM27584.5 9423L29597.5 3918.67H30651.2L32664.2 9423H31665.6L30116.5 5019.54L28567.4 9423H27584.5ZM28480.9 8125.55L28732.5 7378.54H31445.4L31697 8125.55H28480.9ZM34311.8 9517.36C33992 9517.36 33716.8 9454.45 33486.1 9328.64C33260.7 9197.58 33087.7 9003.62 32967.1 8746.75C32846.6 8484.64 32786.3 8162.25 32786.3 7779.57V5459.89H33729.9V7685.21C33729.9 8025.95 33800.6 8285.44 33942.2 8463.67C34089 8636.67 34309.1 8723.16 34602.7 8723.16C34791.4 8723.16 34959.2 8678.61 35106 8589.49C35258 8500.37 35375.9 8371.94 35459.8 8204.19C35548.9 8031.19 35593.5 7821.5 35593.5 7575.12V5459.89H36537.1V9423H35703.6L35632.8 8762.48C35512.2 8993.14 35336.6 9176.62 35106 9312.91C34880.5 9449.21 34615.8 9517.36 34311.8 9517.36ZM38837.2 9423C38569.9 9423 38336.6 9381.06 38137.4 9297.19C37943.4 9213.31 37791.4 9074.39 37681.3 8880.43C37571.2 8686.47 37516.2 8424.36 37516.2 8094.1V6254.08H36839.9V5459.89H37516.2L37626.3 4414.06H38459.8V5459.89H39537.1V6254.08H38459.8V8094.1C38459.8 8293.3 38501.7 8432.22 38585.6 8510.85C38674.7 8584.25 38821.5 8620.94 39025.9 8620.94H39513.5V9423H38837.2ZM39953 9423V3761.41H40896.6V6073.22C41027.7 5858.29 41205.9 5687.92 41431.3 5562.11C41656.7 5431.05 41911 5365.53 42194.1 5365.53C42519.1 5365.53 42794.3 5433.67 43019.7 5569.97C43245.1 5701.03 43415.5 5897.61 43530.8 6159.72C43651.4 6416.59 43711.7 6738.99 43711.7 7126.91V9423H42775.9V7213.41C42775.9 6872.66 42702.6 6613.17 42555.8 6434.94C42414.2 6256.7 42196.7 6167.58 41903.1 6167.58C41714.4 6167.58 41544 6214.76 41392 6309.12C41240 6398.24 41119.4 6529.3 41030.3 6702.29C40941.2 6870.04 40896.6 7077.11 40896.6 7323.49V9423H39953Z" fill="white"/>
</svg>
